<?xml version="1.0" encoding="utf-8"?>
<!-- Generator: Adobe Illustrator 22.0.0, SVG Export Plug-In . SVG Version: 6.00 Build 0)  -->
<svg version="1.1" id="Capa_1" xmlns="http://www.w3.org/2000/svg" xmlns:xlink="http://www.w3.org/1999/xlink" x="0px" y="0px"
	 viewBox="0 0 113.4 113.4" style="enable-background:new 0 0 113.4 113.4;" xml:space="preserve">
<style type="text/css">
	.st0{fill:#5A9E74;}
</style>
<g>
	<path class="st0" d="M55.4,55.1L53,53.7c0,0,0,0,0,0l3.8,2.2l1.3-0.8C57.3,55.5,56.1,55.5,55.4,55.1z"/>
	<path class="st0" d="M38.5,45.4l5.7,3.3c0,0,0,0,0,0L38.5,45.4C38.5,45.4,38.5,45.4,38.5,45.4z"/>
	<path class="st0" d="M56.7,83.5c-0.5,0-0.8,0.4-0.8,0.8v3.3c0,0.5,0.4,0.8,0.8,0.8c0.5,0,0.8-0.4,0.8-0.8v-3.3
		C57.5,83.9,57.1,83.5,56.7,83.5z"/>
	<path class="st0" d="M56.7,70.1c-0.5,0-0.8,0.4-0.8,0.8v6.7c0,0.5,0.4,0.8,0.8,0.8c0.5,0,0.8-0.4,0.8-0.8V71
		C57.5,70.5,57.1,70.1,56.7,70.1z"/>
	<path class="st0" d="M56.7,60.1c-0.5,0-0.8,0.4-0.8,0.8v3.3c0,0.5,0.4,0.8,0.8,0.8c0.5,0,0.8-0.4,0.8-0.8v-3.3
		C57.5,60.5,57.1,60.1,56.7,60.1z"/>
	<path class="st0" d="M107.1,56.7l4.9-8.8l-7.4-6.8l2-9.8l-9.1-4.2l-1.2-10l-10-1.2l-4.2-9.1l-9.8,2l-6.8-7.4l-8.8,4.9l-8.8-4.9
		l-6.8,7.4l-9.8-2L27.1,16l-10,1.2l-1.2,10l-9.1,4.2l2,9.8l-7.4,6.8l4.9,8.8l-4.9,8.8l7.4,6.8l-2,9.8l9.1,4.2l1.2,10l10,1.2l4.2,9.1
		l9.8-2l6.8,7.4l8.8-4.9l8.8,4.9l6.8-7.4l9.8,2l4.2-9.1l10-1.2l1.2-10l9.1-4.2l-2-9.8l7.4-6.8L107.1,56.7z M89,73.8
		c0,0.9-0.6,1.9-1.4,2.4L58.1,93.2c-0.8,0.4-2,0.4-2.7,0L25.8,76.1c-0.8-0.4-1.4-1.5-1.4-2.4V39.6c0-0.9,0.6-1.9,1.4-2.4l29.6-17.1
		c0.8-0.4,2-0.4,2.7,0l29.6,17.1c0.8,0.4,1.4,1.5,1.4,2.4V73.8z"/>
	<path class="st0" d="M84.2,38.4L58.1,23.4c-0.8-0.4-2-0.4-2.7,0L29.3,38.4c-0.8,0.4-0.8,1.1,0,1.6l9.3,5.4c0.5-0.3,1.1-0.5,1.7-0.5
		c2.6,0,4.2,3,4.2,3c0,0.1,0,0.2,0,0.3c0,0-0.1,0.2-0.3,0.5l8.8,5.1c0.6-0.9,1.9-2.3,3.8-2.3c1.8,0,3.1,1.4,3.8,2.3l-2.4,1.4
		c0,0,0,0,0,0L84.2,40C85,39.6,85,38.9,84.2,38.4z M66.2,34.2c0,0.1,0,0.2,0,0.3c0,0-1.6,3-4.2,3c-2.6,0-4.2-3-4.2-3
		c0-0.1,0-0.2,0-0.3c0,0,1.6-3,4.2-3C64.6,31.3,66.2,34.2,66.2,34.2z M52.5,28c0,0,1.6-3,4.2-3c2.6,0,4.2,3,4.2,3c0,0.1,0,0.2,0,0.3
		c0,0-1.6,3-4.2,3c-2.6,0-4.2-3-4.2-3C52.5,28.2,52.5,28.1,52.5,28z M47.1,34.2c0,0,1.6-3,4.2-3c2.6,0,4.2,3,4.2,3
		c0,0.1,0,0.2,0,0.3c0,0-1.6,3-4.2,3c-2.6,0-4.2-3-4.2-3C47,34.5,47,34.3,47.1,34.2z M41.7,41.1c0-0.1,0-0.2,0-0.3c0,0,1.6-3,4.2-3
		c2.6,0,4.2,3,4.2,3c0,0.1,0,0.2,0,0.3c0,0-1.6,3-4.2,3C43.3,44.1,41.7,41.1,41.7,41.1z M55.3,48.2c0,0-1.6,3-4.2,3
		c-2.6,0-4.2-3-4.2-3c0-0.1,0-0.2,0-0.3c0,0,1.6-3,4.2-3c2.6,0,4.2,3,4.2,3C55.3,47.9,55.3,48.1,55.3,48.2z M56.7,44.1
		c-2.6,0-4.2-3-4.2-3c0-0.1,0-0.2,0-0.3c0,0,1.6-3,4.2-3s4.2,3,4.2,3c0,0.1,0,0.2,0,0.3C60.8,41.1,59.3,44.1,56.7,44.1z M66.4,48.2
		c0,0-1.6,3-4.2,3s-4.2-3-4.2-3c0-0.1,0-0.2,0-0.3c0,0,1.6-3,4.2-3s4.2,3,4.2,3C66.5,47.9,66.5,48.1,66.4,48.2z M63.6,41.1
		c0-0.1,0-0.2,0-0.3c0,0,1.6-3,4.2-3s4.2,3,4.2,3c0,0.1,0,0.2,0,0.3c0,0-1.6,3-4.2,3S63.6,41.1,63.6,41.1z M69.2,48.6
		c-0.2-0.3-0.3-0.5-0.3-0.5c0-0.1,0-0.2,0-0.3c0,0,1.6-3,4.2-3c0.7,0,1.2,0.2,1.8,0.5L69.2,48.6z"/>
</g>
</svg>
