<?xml version="1.0" encoding="utf-8"?>
<!-- Generator: Adobe Illustrator 22.0.0, SVG Export Plug-In . SVG Version: 6.00 Build 0)  -->
<svg version="1.1" id="Capa_1" xmlns="http://www.w3.org/2000/svg" xmlns:xlink="http://www.w3.org/1999/xlink" x="0px" y="0px"
	 viewBox="0 0 113.4 113.4" style="enable-background:new 0 0 113.4 113.4;" xml:space="preserve">
<style type="text/css">
	.st0{fill:#5A9E74;}
</style>
<g>
	<path class="st0" d="M100.6,24.2c6.3,0,11.4-5.1,11.4-11.4s-5.1-11.4-11.4-11.4c-6.3,0-11.4,5.1-11.4,11.4c0,2.4,0.8,4.6,2,6.5
		l-1,1c-8.7-8.1-20.6-13-33.5-13s-24.8,5-33.5,13.2l-7.1-7.1c0.7-1.2,1.1-2.5,1.1-4c0-4.3-3.5-7.8-7.8-7.8c-4.4,0-8,3.5-8,7.8
		s3.5,7.8,7.8,7.8c1.4,0,2.8-0.4,4-1.1l7.1,7.1C12.1,32.1,7.2,43.8,7.2,56.7s5,24.8,13.2,33.5l-3.1,3.1c-1.7-1.1-3.5-1.8-5.6-1.8
		c-5.6,0-10.2,4.5-10.2,10.2s4.5,10.2,10.2,10.2s10.2-4.5,10.2-10.2c0-2.1-0.7-4.1-1.8-5.6l3.1-3.1c8.8,8.2,20.6,13.2,33.5,13.2
		c27.3,0,49.4-22.1,49.4-49.4c0-12.9-5-24.8-13.2-33.5l1-1C95.9,23.6,98.1,24.2,100.6,24.2z"/>
</g>
</svg>
