<?xml version="1.0" encoding="utf-8"?>
<!-- Generator: Adobe Illustrator 22.0.0, SVG Export Plug-In . SVG Version: 6.00 Build 0)  -->
<svg version="1.1" id="Capa_1" xmlns="http://www.w3.org/2000/svg" xmlns:xlink="http://www.w3.org/1999/xlink" x="0px" y="0px"
	 viewBox="0 0 113.4 113.4" style="enable-background:new 0 0 113.4 113.4;" xml:space="preserve">
<style type="text/css">
	.st0{fill:#5A9E74;}
</style>
<g>
	<g>
		<path class="st0" d="M80,50L80,50L80,50c-4-6.9-8.3-13.4-13-19.5C58.9,19.7,49.7,9.9,39.6,1.4v38.1c1.3-0.3,2.6-0.5,3.9-0.5
			c4.7,0,8.8,1.9,11.9,5l-3.5,3.5c-2.1-2.1-5.1-3.5-8.4-3.5c-1.4,0-2.8,0.2-4.1,0.8C39.3,45,39,45,38.8,45.2c-0.1,0-0.2,0.1-0.2,0.1
			c-0.2,0.1-0.5,0.2-0.6,0.3c-0.1,0.1-0.2,0.2-0.3,0.2c-0.3,0.2-0.5,0.3-0.8,0.5c-0.2,0.2-0.4,0.2-0.5,0.4c-0.1,0.1-0.2,0.2-0.3,0.2
			c-0.2,0.2-0.4,0.3-0.5,0.5c-2.3,2.2-3.8,5.3-3.8,8.7c0,6.6,5.3,11.8,11.8,11.8c0.8,0,1.7-0.1,2.4-0.2c6.9-1.2,14.3-1.2,21.7,0.1
			c0.7,0.2,1.4,0.2,2,0.2c6.6,0,11.8-5.3,11.8-11.8C81.6,53.8,81.1,51.8,80,50z"/>
	</g>
	<g>
		<path class="st0" d="M72.8,77.8L72.8,77.8L72.8,77.8c-4.7-3.8-11.5-3.2-15.5,1.4c-0.3,0.3-0.5,0.7-0.7,1.1c-2-3-5.4-5-9.2-5
			c-2.6,0-5.1,1-7,2.6v-0.1l0,0c-7.4,6.3-16,10.2-25,12c8.8,13.4,24,22.2,41.2,22.2s32.4-8.8,41.2-22.2C88.9,88,80.2,84,72.8,77.8z"
			/>
	</g>
</g>
</svg>
