<?xml version="1.0" encoding="utf-8"?>
<!-- Generator: Adobe Illustrator 22.0.0, SVG Export Plug-In . SVG Version: 6.00 Build 0)  -->
<svg version="1.1" id="Capa_1" xmlns="http://www.w3.org/2000/svg" xmlns:xlink="http://www.w3.org/1999/xlink" x="0px" y="0px"
	 viewBox="0 0 113.4 113.4" style="enable-background:new 0 0 113.4 113.4;" xml:space="preserve">
<style type="text/css">
	.st0{fill:#5A9E74;}
	.st1{fill:#FFFFFF;}
</style>
<g>
	<path class="st0" d="M45.5,75.5c0,0,0-0.1,0-0.1V75c0-0.1,0-0.2,0-0.3l2.4-22.4c0,0,0-0.1,0-0.1c0.4-2.5,2.3-4.5,4.8-4.8
		c0,0,0.1,0,0.1,0L75.2,45c0.1,0,0.2,0,0.3,0h0.3c0,0,0.1,0,0.1,0c3.1,0.1,6,1.4,8.2,3.6l19.7,19.7c5.2-6.8,8-12.1,8-12.1
		S90.5,15.9,56.7,15.9c-33.8,0-55.3,40.3-55.3,40.3h0c0,0,21.5,40.3,55.3,40.3c1.7,0,3.3-0.1,4.9-0.3L49.1,83.7
		C46.9,81.5,45.6,78.6,45.5,75.5z"/>
	<path class="st0" d="M68.8,72c0.9,0,2-0.4,2.7-1.1c0.7-0.7,1-1.6,1-2.6c0-1-0.3-1.9-1.1-2.7c-0.7-0.7-1.6-1-2.6-1
		c-1,0-1.9,0.3-2.7,1.1c-1.4,1.4-1.4,3.8,0,5.2C66.9,71.7,67.8,72,68.8,72z"/>
	<path class="st0" d="M108.8,77.4L82.1,50.7c-1.7-1.7-3.9-2.6-6.2-2.7c-0.1,0-0.3,0-0.3,0l-22.4,2.4c-1.2,0.2-2.1,1.1-2.3,2.3
		L48.5,75c0,0.1,0,0.3,0,0.3c0.1,2.4,1,4.5,2.7,6.2l26.7,26.7c2.1,2.1,4.9,3.2,7.6,3.2c2.6,0,5.2-1,7.1-2.9L109,92.2
		C113.1,88.1,112.9,81.6,108.8,77.4z M64,63.5c1.3-1.3,2.9-1.9,4.8-1.9s3.5,0.7,4.8,1.9c1.3,1.3,1.9,2.9,1.9,4.8s-0.7,3.5-1.9,4.8
		c-1.3,1.3-3.1,1.9-4.8,1.9c-1.8,0-3.4-0.7-4.8-2C61.4,70.4,61.4,66.1,64,63.5z"/>
	<path class="st1" d="M73.6,73.1c1.3-1.3,1.9-2.9,1.9-4.8s-0.7-3.4-1.9-4.8c-1.3-1.3-2.9-1.9-4.8-1.9s-3.4,0.7-4.8,1.9
		c-2.6,2.6-2.6,6.9,0,9.5c1.3,1.3,3,2,4.8,2C70.5,75,72.3,74.4,73.6,73.1z M66.1,65.7c0.8-0.7,1.7-1.1,2.7-1.1c1,0,1.9,0.4,2.6,1
		c0.7,0.8,1.1,1.7,1.1,2.7c0,1-0.4,1.9-1,2.6c-0.7,0.7-1.7,1.1-2.7,1.1c-1,0-1.9-0.4-2.7-1.1C64.7,69.5,64.7,67.1,66.1,65.7z"/>
</g>
</svg>
