<?xml version="1.0" encoding="utf-8"?>
<!-- Generator: Adobe Illustrator 22.0.0, SVG Export Plug-In . SVG Version: 6.00 Build 0)  -->
<svg version="1.1" id="Capa_1" xmlns="http://www.w3.org/2000/svg" xmlns:xlink="http://www.w3.org/1999/xlink" x="0px" y="0px"
	 viewBox="0 0 113.4 113.4" style="enable-background:new 0 0 113.4 113.4;" xml:space="preserve">
<style type="text/css">
	.st0{fill:#5A9E74;}
</style>
<g>
	<path class="st0" d="M100,37.2v-9.7c0-8.6-7-15.6-15.6-15.6c-3.3,0-6.4,1.1-8.9,2.8c-5.1-3.4-10.9-5.4-17.2-5.4
		c-12.9,0-24.3,8.1-28.7,19.9C14.1,29.4,1.4,42,1.4,57.6S14.2,86,29.8,86c4.8,0,9.2-1.1,13.4-3.3C47.5,90.1,55.5,95,64.4,95
		c0.9,0,1.8-0.1,2.6-0.2c3.7,5.6,10.1,9.3,17.4,9.3c11.5,0,20.9-9.4,20.9-20.9c0-3-0.7-5.9-1.9-8.6c5.4-4.3,8.6-10.7,8.6-17.6
		C112,48.7,107.3,41,100,37.2z M84.4,96.7c-7.4,0-13.5-6-13.5-13.5c0-3.6,1.5-7.1,4.2-9.6c0.7-0.7,1.1-1.7,1.1-2.7V27.4
		c0-4.5,3.6-8.1,8.1-8.1s8.1,3.6,8.1,8.1v43.4c0,1,0.4,2,1.1,2.7c2.6,2.5,4.2,6,4.2,9.6C97.8,90.6,91.8,96.7,84.4,96.7z"/>
	<path class="st0" d="M88.8,75.3V53c0-2.4-1.9-4.4-4.4-4.4c-2.4,0-4.5,2-4.5,4.4v22.3c-3,1.6-5.2,4.8-5.2,8.4c0,5.3,4.3,9.5,9.5,9.5
		c5.3,0,9.5-4.3,9.5-9.5C93.9,80.1,91.8,76.9,88.8,75.3z"/>
</g>
</svg>
