<?xml version="1.0" encoding="utf-8"?>
<!-- Generator: Adobe Illustrator 22.0.0, SVG Export Plug-In . SVG Version: 6.00 Build 0)  -->
<svg version="1.1" id="Capa_1" xmlns="http://www.w3.org/2000/svg" xmlns:xlink="http://www.w3.org/1999/xlink" x="0px" y="0px"
	 viewBox="0 0 30 30" style="enable-background:new 0 0 30 30;" xml:space="preserve">
<style type="text/css">
	.st0{fill:#FFFFFF;}
</style>
<g>
	<path d="M17.4,16.4l-1.2,1.2c-0.3,0.3-0.7,0.5-1.1,0.5c-0.4,0-0.8-0.2-1.1-0.5l-1.3-1.3l-3.3,1.5l5.6,2.6l5.6-2.6L17.4,16.4z"/>
	<polygon points="15.8,29.3 21.7,26.5 21.7,19.2 15.8,21.9 	"/>
	<polygon points="8.1,26.5 14.1,29.3 14.1,21.9 8.1,19.2 	"/>
	<path d="M15,17.1c0.1,0,0.3-0.1,0.4-0.2l4.4-4.4c2.7-2.7,2.7-7,0-9.7c-1.3-1.3-3.1-2-4.8-2c-1.8,0-3.5,0.7-4.8,2
		c-2.7,2.7-2.7,7,0,9.7l4.4,4.4C14.7,17,14.9,17.1,15,17.1z M15.1,5.7C15.1,5.7,15.1,5.7,15.1,5.7c0.7,0,1.2,0.5,1.2,1.2
		c0,0.7-0.5,1.2-1.2,1.2c0,0,0,0,0,0c-0.7,0-1.2-0.5-1.2-1.2c0,0,0,0,0,0C13.9,6.3,14.4,5.8,15.1,5.7z"/>
	<path class="st0" d="M15.1,8.2C15.1,8.2,15.1,8.2,15.1,8.2c0.7,0,1.2-0.6,1.2-1.2c0-0.7-0.6-1.2-1.2-1.2c0,0,0,0,0,0
		c-0.7,0-1.2,0.6-1.2,1.2c0,0,0,0,0,0C13.9,7.6,14.4,8.2,15.1,8.2z"/>
</g>
</svg>
